<svg width="473" height="415" viewBox="0 0 473 415" fill="none" xmlns="http://www.w3.org/2000/svg">
<g clip-path="url(#clip0_266_40)">
<path d="M74 308.33C74 308.643 74.2512 308.894 74.5641 308.894H398.436C398.749 308.894 399 308.643 399 308.33C399 308.018 398.749 307.767 398.436 307.767H74.5641C74.2512 307.767 74 308.018 74 308.33Z" fill="#3F3D56"/>
<path d="M208.375 308.752H107.14C103.098 308.752 99.8086 305.464 99.8086 301.424V113.328C99.8086 109.287 103.098 106 107.14 106H208.375C212.418 106 215.707 109.287 215.707 113.328V301.424C215.707 305.464 212.418 308.752 208.375 308.752ZM107.14 106.947C103.62 106.947 100.757 109.81 100.757 113.328V301.424C100.757 304.942 103.62 307.804 107.14 307.804H208.375C211.895 307.804 214.759 304.942 214.759 301.424V113.328C214.759 109.81 211.895 106.947 208.375 106.947H107.14Z" fill="#3F3D56"/>
<path d="M389.929 201.647C389.529 200.972 387.798 201.694 387.48 201.082C387.163 200.472 388.771 199.543 389.69 197.42C389.856 197.038 390.9 194.625 390.127 193.881C388.662 192.47 381.956 198.293 379.609 196.387C379.094 195.969 378.734 195.134 377.175 193.779C376.555 193.24 376.18 192.996 375.817 193.087C375.302 193.215 375.262 193.904 374.709 195.258C373.881 197.289 373.392 197.167 372.909 198.787C372.551 199.99 372.633 200.689 372.211 200.826C371.615 201.018 371.066 199.743 370.31 199.857C369.539 199.973 369.073 201.459 368.925 202.571C368.649 204.658 369.416 206.036 369.841 207.484C370.303 209.058 370.577 211.451 369.51 214.84L358.951 244.573C361.282 238.472 368.032 221.747 370.868 215.532C371.687 213.737 372.591 211.918 374.447 211.199C376.234 210.508 378.689 210.921 381.818 210.167C382.183 210.079 383.198 209.821 383.325 209.225C383.431 208.732 382.834 208.457 382.926 207.996C383.049 207.377 384.222 207.369 385.663 206.655C386.68 206.151 387.313 205.552 387.858 205.037C388.022 204.882 390.462 202.544 389.929 201.647Z" fill="#F2F2F2"/>
<path d="M348.387 217.3C347.94 217.302 347.795 218.359 347.403 218.339C347.012 218.319 347.019 217.261 346.242 216.198C346.102 216.006 345.219 214.798 344.63 214.963C343.514 215.274 344.439 220.244 342.826 220.845C342.472 220.977 341.958 220.913 340.843 221.286C340.399 221.435 340.171 221.549 340.111 221.753C340.026 222.042 340.352 222.261 340.858 222.923C341.616 223.915 341.415 224.12 342.071 224.824C342.559 225.347 342.926 225.508 342.871 225.754C342.794 226.103 342.009 226.004 341.847 226.407C341.682 226.819 342.277 227.477 342.78 227.87C343.726 228.608 344.623 228.629 345.457 228.838C346.363 229.066 347.618 229.622 348.974 231.123L360.529 244.881C358.205 241.978 351.939 233.841 349.706 230.656C349.061 229.737 348.428 228.769 348.611 227.651C348.787 226.575 349.698 225.49 350.231 223.738C350.293 223.533 350.459 222.961 350.203 222.726C349.991 222.532 349.684 222.746 349.484 222.568C349.215 222.329 349.55 221.751 349.615 220.838C349.661 220.194 349.55 219.71 349.454 219.295C349.425 219.169 348.981 217.298 348.387 217.3Z" fill="#F2F2F2"/>
<path d="M357.296 219.299L357.027 216.898L357.15 216.716C357.719 215.875 358.009 215.053 358.013 214.273C358.013 214.149 358.007 214.025 358.002 213.898C357.979 213.397 357.95 212.775 358.274 212.049C358.456 211.645 358.968 210.708 359.737 210.824C359.944 210.853 360.101 210.948 360.22 211.059C360.237 211.031 360.255 211.004 360.274 210.973C360.514 210.608 360.703 210.452 360.886 210.301C361.026 210.185 361.171 210.066 361.399 209.783C361.498 209.659 361.576 209.55 361.642 209.458C361.841 209.181 362.1 208.851 362.559 208.857C363.048 208.88 363.304 209.284 363.474 209.552C363.778 210.03 363.915 210.374 364.006 210.602C364.039 210.686 364.077 210.78 364.096 210.809C364.254 211.041 365.536 210.824 366.019 210.745C367.104 210.564 368.043 210.408 368.43 211.092C368.707 211.581 368.502 212.228 367.8 213.066C367.581 213.327 367.349 213.525 367.142 213.68C367.313 213.782 367.466 213.939 367.528 214.185C367.675 214.767 367.174 215.35 366.041 215.92C365.76 216.063 365.381 216.253 364.851 216.344C364.601 216.387 364.376 216.398 364.183 216.403C364.179 216.515 364.153 216.635 364.085 216.759C363.886 217.125 363.472 217.298 362.848 217.257C362.161 217.221 361.596 217.09 361.097 216.975C360.662 216.875 360.286 216.791 359.992 216.81C359.445 216.854 359.024 217.292 358.53 217.858L357.296 219.299Z" fill="#F2F2F2"/>
<path d="M358.545 205.004L356.29 205.873L356.082 205.8C355.123 205.464 354.254 205.392 353.498 205.587C353.378 205.617 353.259 205.655 353.139 205.692C352.66 205.842 352.065 206.028 351.28 205.898C350.842 205.824 349.806 205.567 349.723 204.794C349.698 204.587 349.751 204.411 349.828 204.268C349.797 204.258 349.765 204.248 349.731 204.237C349.317 204.098 349.118 203.955 348.925 203.816C348.778 203.71 348.625 203.6 348.294 203.452C348.148 203.387 348.023 203.34 347.918 203.3C347.599 203.178 347.214 203.01 347.103 202.566C347.001 202.087 347.328 201.736 347.544 201.504C347.929 201.09 348.228 200.869 348.426 200.723C348.498 200.67 348.579 200.61 348.603 200.584C348.787 200.373 348.252 199.188 348.053 198.741C347.603 197.738 347.213 196.87 347.777 196.322C348.18 195.93 348.859 195.965 349.848 196.431C350.156 196.576 350.406 196.751 350.609 196.911C350.665 196.72 350.777 196.532 350.999 196.41C351.526 196.121 352.217 196.457 353.056 197.407C353.266 197.643 353.546 197.961 353.769 198.451C353.874 198.681 353.941 198.896 353.995 199.081C354.104 199.057 354.227 199.051 354.365 199.085C354.769 199.185 355.042 199.541 355.16 200.155C355.299 200.828 355.316 201.408 355.331 201.919C355.345 202.366 355.359 202.75 355.452 203.03C355.634 203.547 356.163 203.843 356.837 204.177L358.545 205.004Z" fill="#F2F2F2"/>
<path d="M357.296 197.931L357.027 195.53L357.15 195.348C357.719 194.507 358.009 193.685 358.013 192.905C358.013 192.781 358.007 192.656 358.002 192.53C357.979 192.029 357.95 191.407 358.274 190.681C358.456 190.276 358.968 189.34 359.737 189.456C359.944 189.485 360.101 189.58 360.22 189.691C360.237 189.663 360.255 189.635 360.274 189.605C360.514 189.24 360.703 189.084 360.886 188.933C361.026 188.817 361.171 188.698 361.399 188.415C361.498 188.291 361.576 188.182 361.642 188.09C361.841 187.813 362.1 187.483 362.559 187.488C363.048 187.512 363.304 187.916 363.474 188.184C363.778 188.662 363.915 189.006 364.006 189.234C364.039 189.318 364.077 189.412 364.096 189.441C364.254 189.672 365.536 189.456 366.019 189.377C367.104 189.196 368.043 189.039 368.43 189.723C368.707 190.213 368.502 190.86 367.8 191.698C367.581 191.959 367.349 192.157 367.142 192.312C367.313 192.414 367.466 192.571 367.528 192.816C367.675 193.398 367.174 193.982 366.041 194.552C365.76 194.694 365.381 194.885 364.851 194.976C364.601 195.019 364.376 195.03 364.183 195.035C364.179 195.147 364.153 195.267 364.085 195.391C363.886 195.756 363.472 195.93 362.848 195.889C362.161 195.853 361.596 195.722 361.097 195.607C360.662 195.507 360.286 195.423 359.992 195.442C359.445 195.486 359.024 195.923 358.53 196.49L357.296 197.931Z" fill="#F2F2F2"/>
<path d="M359.755 244.535L359.252 244.219L358.665 244.286C358.655 244.232 358.623 244.107 358.575 243.911C358.313 242.837 357.512 239.57 356.843 234.426C356.377 230.834 356.113 227.142 356.059 223.449C356.004 219.751 356.179 216.952 356.32 214.701C356.426 213.004 356.555 211.388 356.681 209.814C357.017 205.608 357.335 201.635 357.099 197.237C357.046 196.255 356.937 194.211 355.742 192.036C355.049 190.775 354.094 189.655 352.904 188.709L353.644 187.779C354.958 188.825 356.014 190.065 356.784 191.466C358.108 193.877 358.228 196.104 358.285 197.174C358.525 201.65 358.205 205.661 357.865 209.908C357.74 211.476 357.611 213.085 357.505 214.776C357.366 217.005 357.193 219.78 357.247 223.431C357.3 227.079 357.561 230.726 358.021 234.273C358.681 239.353 359.47 242.571 359.729 243.628C359.867 244.193 359.896 244.311 359.755 244.535Z" fill="#F2F2F2"/>
<path d="M350.726 190.595C350.678 190.595 350.628 190.594 350.578 190.59C349.567 190.536 348.63 189.931 347.794 188.792C347.402 188.257 347.201 187.646 346.801 186.427C346.739 186.24 346.437 185.287 346.254 183.975C346.134 183.119 346.149 182.76 346.319 182.444C346.508 182.092 346.813 181.846 347.156 181.68C347.141 181.566 347.153 181.449 347.202 181.33C347.405 180.835 347.943 180.9 348.234 180.931C348.381 180.95 348.565 180.974 348.764 180.964C349.076 180.949 349.243 180.856 349.497 180.717C349.74 180.583 350.043 180.418 350.491 180.326C351.375 180.142 352.115 180.392 352.36 180.474C353.644 180.902 354.278 181.9 355.011 183.056C355.157 183.288 355.658 184.132 355.99 185.289C356.229 186.124 356.195 186.495 356.123 186.77C355.977 187.337 355.632 187.662 354.755 188.378C353.84 189.128 353.381 189.504 352.987 189.732C352.068 190.262 351.492 190.595 350.726 190.595Z" fill="#F2F2F2"/>
<path d="M215.988 189.614H99.5254V219.847H215.988V189.614Z" fill="#6C63FF"/>
<path d="M173.639 106.474H143.389V308.278H173.639V106.474Z" fill="#6C63FF"/>
<path opacity="0.2" d="M174.756 217.571C174.97 216.738 175.098 215.872 175.129 214.98L212.963 180.544L180.444 164.672L166.112 202.869C165.133 202.613 164.11 202.463 163.051 202.463C162.488 202.463 161.939 202.515 161.396 202.589L147.169 164.672L114.65 180.544L150.997 213.627C150.974 213.935 150.95 214.242 150.95 214.556C150.95 215.599 151.097 216.605 151.345 217.571C129.065 224.53 119.944 245.545 119.944 245.545L147.925 268.219C146.257 251.54 156.448 234.465 161.958 226.594C162.318 226.626 162.682 226.649 163.051 226.649C163.419 226.649 163.783 226.626 164.143 226.594C169.653 234.465 179.844 251.54 178.176 268.219L206.157 245.545C206.157 245.545 197.036 224.53 174.756 217.571Z" fill="black"/>
<path d="M178.864 260.049C178.538 260.049 178.209 259.978 177.899 259.833C177.113 259.467 176.617 258.703 176.603 257.84C176.374 243.217 168.031 228.866 163.079 221.613C162.748 221.129 162.177 220.84 161.551 220.84H161.548C160.899 220.84 160.327 221.129 159.997 221.613C155.044 228.866 146.702 243.217 146.472 257.84C146.459 258.702 145.962 259.467 145.177 259.833C144.383 260.204 143.468 260.092 142.789 259.542L119.532 240.695C118.702 240.022 118.458 238.843 118.952 237.892C121.303 233.367 130.354 218.116 148.117 211.845C148.91 211.565 149.391 210.776 149.287 209.926C149.23 209.452 149.201 208.975 149.201 208.51C149.202 207.955 148.99 207.451 148.618 207.113L115.182 176.679C114.628 176.175 114.36 175.43 114.466 174.688C114.572 173.946 115.038 173.306 115.712 172.977L143.551 159.39C144.122 159.111 144.788 159.086 145.38 159.321C145.97 159.556 146.437 160.032 146.661 160.627L159.568 195.028C159.835 195.739 160.518 196.202 161.294 196.183C161.878 196.169 162.472 196.203 163.063 196.28C163.898 196.391 164.685 195.921 164.977 195.141L177.927 160.627C178.151 160.032 178.618 159.556 179.208 159.321C179.799 159.086 180.466 159.111 181.037 159.39L208.875 172.977C209.55 173.306 210.016 173.946 210.122 174.689C210.228 175.43 209.96 176.175 209.406 176.679L174.375 208.564C174.049 208.861 173.846 209.267 173.803 209.706C173.794 209.801 173.784 209.896 173.772 209.99C173.676 210.788 174.173 211.568 174.953 211.843C192.719 218.113 201.772 233.366 204.123 237.892C204.618 238.843 204.374 240.022 203.544 240.695L180.286 259.542C179.873 259.877 179.372 260.049 178.864 260.049Z" fill="#6C63FF"/>
<path d="M375.295 308.937H277.623C273.58 308.937 270.291 305.65 270.291 301.609V251.942C270.291 247.902 273.58 244.614 277.623 244.614H375.295C379.337 244.614 382.626 247.902 382.626 251.942V301.609C382.626 305.65 379.337 308.937 375.295 308.937ZM277.623 245.562C274.103 245.562 271.239 248.424 271.239 251.942V301.609C271.239 305.128 274.103 307.99 277.623 307.99H375.295C378.815 307.99 381.678 305.128 381.678 301.609V251.942C381.678 248.424 378.815 245.562 375.295 245.562H277.623Z" fill="#3F3D56"/>
<path d="M336.261 244.671H319.574V308.88H336.261V244.671Z" fill="#6C63FF"/>
<path d="M382.151 268.854H270.764V285.531H382.151V268.854Z" fill="#6C63FF"/>
<path opacity="0.2" d="M323.2 287.569C323.66 287.687 324.137 287.757 324.63 287.774L343.637 308.633L352.398 290.705L331.315 282.803C331.456 282.263 331.539 281.699 331.539 281.115C331.539 280.805 331.51 280.502 331.469 280.203L352.398 272.359L343.637 254.431L325.377 274.47C325.207 274.457 325.037 274.444 324.864 274.444C324.288 274.444 323.733 274.524 323.2 274.661C319.359 262.378 307.76 257.349 307.76 257.349L295.244 272.776C304.45 271.856 313.875 277.475 318.22 280.513C318.202 280.711 318.189 280.912 318.189 281.115C318.189 281.318 318.202 281.519 318.22 281.718C313.875 284.755 304.45 290.374 295.244 289.454L307.76 304.881C307.76 304.881 319.359 299.852 323.2 287.569Z" fill="black"/>
<path d="M344.323 305.766C343.945 305.766 343.582 305.607 343.324 305.324L325.723 286.009C325.578 285.85 325.367 285.749 325.128 285.725L325.053 285.717C324.623 285.67 324.23 285.902 324.096 286.283C320.622 296.127 312.164 301.137 309.655 302.438C309.09 302.732 308.387 302.584 307.985 302.086L297.581 289.262C297.252 288.856 297.185 288.308 297.407 287.833C297.626 287.364 298.082 287.069 298.597 287.061C306.64 286.937 314.542 282.348 318.537 279.625C318.778 279.46 318.921 279.177 318.921 278.867C318.921 278.543 318.778 278.26 318.537 278.097C314.543 275.373 306.641 270.784 298.596 270.66C298.082 270.653 297.626 270.357 297.407 269.888C297.185 269.412 297.252 268.865 297.581 268.458L307.985 255.634C308.388 255.138 309.09 254.99 309.655 255.283C312.164 256.584 320.62 261.593 324.094 271.433C324.229 271.815 324.613 272.052 325.001 272.006C325.422 271.953 325.842 271.941 326.248 271.971L343.324 253.231C343.626 252.899 344.072 252.739 344.516 252.803C344.96 252.867 345.343 253.145 345.54 253.548L353.04 268.898C353.207 269.24 353.222 269.639 353.082 269.992C352.941 270.345 352.656 270.624 352.299 270.757L333.311 277.874C332.961 278.005 332.733 278.346 332.743 278.723L332.744 278.86C332.744 279.155 332.724 279.456 332.683 279.753C332.631 280.135 332.869 280.515 333.25 280.658L352.3 287.798C352.656 287.931 352.941 288.21 353.082 288.564C353.222 288.917 353.207 289.315 353.04 289.657L345.54 305.007C345.343 305.41 344.96 305.688 344.516 305.752C344.452 305.761 344.387 305.766 344.323 305.766Z" fill="#6C63FF"/>
<path d="M255.865 187.332H240.59V182.305C240.59 173.88 247.434 167.039 255.865 167.039L255.865 187.332Z" fill="#2F2E41"/>
<path d="M252.479 177.948L255.105 189.754L239.715 187.2L245.986 176.034L252.479 177.948Z" fill="#FFB6B6"/>
<path opacity="0.1" d="M252.479 177.948L255.105 189.754L239.715 187.2L245.986 176.034L252.479 177.948Z" fill="black"/>
<path d="M252.478 203.168H237.723V224.993H252.478V203.168Z" fill="#FFB6B6"/>
<path d="M262.069 242.837L258.823 260.238C258.823 260.238 260.889 272.33 254.692 284.717L250.56 297.399L244.363 296.515C244.363 296.515 248.2 287.077 248.2 282.948C248.2 278.819 249.085 262.892 249.085 262.892L248.642 244.719L262.069 242.837Z" fill="#FFB6B6"/>
<path d="M243.477 296.219C243.477 296.219 250.559 293.565 251.149 297.399L250.854 299.168C250.854 299.168 253.51 307.132 249.674 307.722C245.838 308.311 242.296 309.196 242.001 307.427C241.706 305.657 241.711 303.448 242.446 301.898C243.182 300.348 243.477 296.219 243.477 296.219Z" fill="#2F2E41"/>
<path d="M239.73 240.137L238.006 257.754C238.006 257.754 232.657 268.795 235.162 282.416L235.602 295.746L241.801 296.618C241.801 296.618 240.742 286.486 241.891 282.52C243.04 278.554 246.621 263.01 246.621 263.01L252.103 245.677L239.73 240.137Z" fill="#FFB6B6"/>
<path d="M242.732 296.582C242.732 296.582 236.668 292.064 235.034 295.582L234.825 297.364C234.825 297.364 230.142 306.171 233.663 307.804C237.184 309.437 240.255 309.375 241.031 307.757C241.807 306.139 242.417 304.016 242.142 302.323C241.867 300.63 242.732 296.582 242.732 296.582Z" fill="#2F2E41"/>
<path d="M258.233 214.817L270.922 241.656C270.922 241.656 245.396 254.486 230.346 254.486L237.818 214.817L258.233 214.817Z" fill="#2F2E41"/>
<path d="M246.87 183.407L254.248 184.587L253.658 203.168L261.921 219.684L251.297 224.993C251.297 224.993 243.034 209.361 241.559 199.629C240.083 189.896 240.968 182.817 240.968 182.817L246.87 183.407Z" fill="#E6E6E6"/>
<path d="M241.265 183.997L233.887 185.177L234.478 203.758L232.707 220.864L236.838 225.583C236.838 225.583 245.101 209.951 246.577 200.218C248.052 190.486 247.167 183.407 247.167 183.407L241.265 183.997Z" fill="#E6E6E6"/>
<path d="M252.625 185.03L254.248 184.588C254.248 184.588 260.003 183.85 260.888 186.21C261.773 188.569 261.478 202.431 261.478 202.431C261.478 202.431 263.001 219.444 257.075 219.638C251.15 219.832 252.33 205.675 252.33 205.675L252.625 185.03Z" fill="#E6E6E6"/>
<path d="M249.903 181.188C254.121 181.188 257.541 177.771 257.541 173.555C257.541 169.339 254.121 165.922 249.903 165.922C245.685 165.922 242.266 169.339 242.266 173.555C242.266 177.771 245.685 181.188 249.903 181.188Z" fill="#FFB6B6"/>
<path d="M247.513 184.06C249.152 183.645 251.009 185.394 251.663 187.967C251.938 188.992 251.964 190.068 251.738 191.104L252.442 194.03L252.494 194.027L258.047 207.107C259.338 210.149 259.202 213.64 257.555 216.504C256.575 218.208 255.289 219.354 253.779 218.185C251.273 216.244 249.637 205.134 248.889 198.752L247.162 192.265C246.468 191.461 245.977 190.503 245.73 189.471C245.077 186.898 245.875 184.476 247.513 184.06Z" fill="#FFB6B6"/>
<path d="M240.38 185.03L238.757 184.588C238.757 184.588 233.003 183.85 232.117 186.21C231.232 188.569 231.527 202.431 231.527 202.431C231.527 202.431 230.004 219.444 235.93 219.638C241.856 219.832 240.675 205.675 240.675 205.675L240.38 185.03Z" fill="#E6E6E6"/>
<path d="M245.492 184.06C243.853 183.645 241.996 185.394 241.342 187.967C241.067 188.992 241.041 190.068 241.267 191.104L240.563 194.03L240.511 194.027L234.958 207.107C233.667 210.149 233.803 213.64 235.45 216.504C236.43 218.208 237.716 219.354 239.226 218.185C241.732 216.244 243.368 205.134 244.116 198.752L245.843 192.265C246.537 191.461 247.028 190.503 247.275 189.471C247.929 186.898 247.13 184.476 245.492 184.06Z" fill="#FFB6B6"/>
<path d="M235.281 179.73C235.669 178.549 236.436 177.516 236.779 176.321C237.235 174.735 238.205 178.254 238.299 176.606C238.479 173.475 243.261 165.421 245.991 163.874C248.72 162.326 250.288 162.793 253.069 164.246C253.069 164.246 254.419 164.332 256.1 165.161C257.781 165.99 259.293 167.318 259.947 169.074C260.465 170.466 260.408 171.994 260.581 173.469C261.063 177.577 263.368 181.484 262.873 185.591C262.719 186.872 262.231 188.197 261.183 188.951C260.135 189.705 258.441 189.623 257.751 188.532C257.516 188.16 257.416 187.718 257.214 187.326C257.013 186.935 256.648 186.57 256.208 186.582C255.545 186.6 255.208 187.488 255.47 188.097C255.731 188.705 256.344 189.072 256.92 189.399C255.548 190.016 253.846 189.824 252.647 188.917C251.447 188.01 250.799 186.425 251.02 184.938C251.331 182.842 254.386 183.276 254.746 181.188C255.008 179.668 255.928 177.125 255.677 175.603C255.427 174.081 254.223 175.923 255.491 175.044C254.096 175.716 251.112 171.119 249.652 170.604C248.192 170.089 246.954 168.974 246.29 167.576C244.741 169.819 243.378 169.21 242.824 171.879C242.269 174.548 242.782 180.612 245.066 182.102C244.152 182.725 243.423 183.617 242.994 184.636C242.751 185.214 242.594 185.846 242.191 186.325C241.42 187.241 239.998 187.297 238.865 186.912C237.459 186.434 236.258 185.385 235.595 184.058C234.932 182.73 234.817 181.139 235.281 179.73Z" fill="#2F2E41"/>
</g>
<defs>
<clipPath id="clip0_266_40">
<rect width="325" height="203" fill="white" transform="translate(74 106)"/>
</clipPath>
</defs>
</svg>
