<svg width="520" height="503" viewBox="0 0 520 503" fill="none" xmlns="http://www.w3.org/2000/svg">
<g clip-path="url(#clip0_268_41)">
<path d="M112.104 187.405L121.571 190.519V176.883H112.981L112.104 187.405Z" fill="#EFA4A7"/>
<path d="M120.397 180.657C125.608 180.657 129.831 176.431 129.831 171.219C129.831 166.007 125.608 161.782 120.397 161.782C115.187 161.782 110.963 166.007 110.963 171.219C110.963 176.431 115.187 180.657 120.397 180.657Z" fill="#EFA4A7"/>
<path d="M117.809 170.286C119.39 170.236 120.424 168.642 121.039 167.183C121.654 165.724 122.286 164.052 123.75 163.448C124.946 162.956 127.059 166.283 128.009 165.394C128.992 164.472 128.031 159.731 126.986 158.875C125.941 158.02 124.51 157.858 123.163 157.796C119.877 157.645 116.568 157.908 113.343 158.584C111.348 158.998 109.297 159.624 107.86 161.067C106.038 162.895 105.574 165.657 105.44 168.234C105.306 170.873 105.457 173.635 106.742 175.944C108.028 178.253 110.711 179.958 113.282 179.365C113.539 177.968 113.282 176.531 113.175 175.111C113.075 173.691 113.175 172.159 114.047 171.024C114.919 169.889 116.764 169.447 117.775 170.448" fill="#36344E"/>
<path d="M106.202 173.557C105.257 172.863 104.128 172.288 102.966 172.427C101.708 172.578 100.652 173.613 100.327 174.837C100.003 176.061 100.367 177.409 101.143 178.409C101.92 179.41 103.072 180.07 104.296 180.4C105 180.59 105.777 180.668 106.447 180.383C107.442 179.958 107.973 178.689 107.588 177.677" fill="#36344E"/>
<path d="M124.098 339.115H115.229V351.7H124.098V339.115Z" fill="#EFA4A7"/>
<path d="M132.737 359.32C133.67 359.32 134.498 359.298 135.124 359.242C137.482 359.024 139.729 357.285 140.858 356.268C141.367 355.809 141.529 355.083 141.266 354.456C141.076 354.004 140.696 353.668 140.226 353.534L134 351.756L123.918 344.952L123.806 345.153C123.761 345.226 122.772 347.01 122.442 348.217C122.314 348.676 122.347 349.056 122.543 349.352C122.677 349.559 122.861 349.676 123.012 349.743C122.828 349.934 122.258 350.319 120.497 350.604C117.926 351.013 117.384 348.346 117.362 348.234L117.345 348.144L117.267 348.094C116.043 347.306 115.288 346.948 115.031 347.026C114.869 347.077 114.595 347.155 113.869 354.417C113.796 354.647 113.282 356.318 113.634 357.912C114.014 359.65 121.604 359.052 123.118 358.912C123.163 358.912 128.847 359.32 132.737 359.32Z" fill="#36344E"/>
<path d="M89.9759 329.223L83.3184 339.901L90.8445 344.597L97.502 333.918L89.9759 329.223Z" fill="#EFA4A7"/>
<path d="M99.9686 357.593C101.008 357.593 101.964 357.47 102.646 357.347C103.316 357.23 103.842 356.699 103.948 356.022C104.026 355.541 103.881 355.055 103.557 354.692L99.214 349.889L94.2622 338.78L94.061 338.892C93.9827 338.931 92.1998 339.921 91.2832 340.771C90.9311 341.095 90.7579 341.436 90.7635 341.788C90.7635 342.034 90.8585 342.23 90.9535 342.37C90.6964 342.437 90.0089 342.459 88.3658 341.766C85.9681 340.754 86.9182 338.204 86.9629 338.098L86.9964 338.014L86.9573 337.93C86.3369 336.611 85.8898 335.912 85.6271 335.84C85.465 335.795 85.1912 335.722 80.7311 341.492C80.5467 341.643 79.2277 342.794 78.68 344.332C78.0819 346.009 84.8391 349.515 86.1972 350.202C86.2363 350.236 93.312 355.379 96.2127 356.838C97.3641 357.42 98.7278 357.599 99.9686 357.599L99.9686 357.593Z" fill="#36344E"/>
<path d="M108.699 233.858H133.531L135.784 256.965L125.924 342.341H113.249L118.318 293.031L97.7558 337.55L86.4883 329.662L102.546 288.1C102.546 288.1 96.8112 251.894 101.316 242.876C105.821 233.858 108.699 233.858 108.699 233.858Z" fill="#36344E"/>
<path d="M96.3477 235.267H135.784L123.952 184.263H106.771L96.3477 235.267Z" fill="#6C63FF"/>
<path d="M145.575 183.262C146.207 180.159 145.05 177.324 143.004 176.933C140.953 176.541 138.785 178.739 138.153 181.842C137.885 183.077 137.924 184.357 138.276 185.582L135.783 198.759L142.227 199.777L143.999 186.678C144.798 185.677 145.34 184.508 145.575 183.262Z" fill="#EFA4A7"/>
<path d="M107.191 184.263H122.343L132.56 204.697L136.41 189.384L144.878 190.284C144.878 190.284 142.877 220.206 134.119 219.194C125.361 218.182 104.944 191.223 107.191 184.263Z" fill="#6C63FF"/>
<path d="M90.2663 261.985C89.6348 265.088 90.7917 267.922 92.8373 268.314C94.8885 268.705 97.057 266.508 97.6886 263.405C97.9568 262.169 97.9177 260.889 97.5656 259.665L100.058 246.487L93.6142 245.47L91.8424 258.569C91.0432 259.57 90.5011 260.738 90.2663 261.985Z" fill="#EFA4A7"/>
<path d="M115.826 184.262C115.826 184.262 107.214 183.899 106.766 184.262C104.419 186.185 90.6309 255.455 90.6309 255.455H99.3609L115.821 184.262H115.826Z" fill="#6C63FF"/>
<path d="M186.541 359.334C186.541 359.703 186.245 360 185.876 360H47.6651C47.2962 360 47 359.703 47 359.334C47 358.965 47.2962 358.669 47.6651 358.669H185.876C186.245 358.669 186.541 358.965 186.541 359.334Z" fill="#484565"/>
<path d="M261.455 152.91H145.762V185.896H261.455V152.91Z" fill="#D5D5D5"/>
<path d="M156.102 159.899H173.627" stroke="black" stroke-width="2" stroke-miterlimit="10"/>
<path d="M156.102 169.403H250.556" stroke="black" stroke-width="2" stroke-miterlimit="10"/>
<path d="M278.611 169.403H301.78" stroke="black" stroke-width="2" stroke-miterlimit="10"/>
<path d="M156.102 177.149H197.254" stroke="black" stroke-width="2" stroke-miterlimit="10"/>
<path d="M156.102 225.311H217.301" stroke="black" stroke-width="2" stroke-miterlimit="10"/>
<path d="M156.102 234.815H207.8" stroke="black" stroke-width="2" stroke-miterlimit="10"/>
<path d="M156.102 242.562H197.254" stroke="black" stroke-width="2" stroke-miterlimit="10"/>
<path d="M156.102 193.277H212.429" stroke="black" stroke-width="2" stroke-miterlimit="10"/>
<path d="M156.102 201.342H250.556" stroke="black" stroke-width="2" stroke-miterlimit="10"/>
<path d="M156.102 210.354H197.254" stroke="black" stroke-width="2" stroke-miterlimit="10"/>
<path d="M265.646 123V285.691" stroke="black" stroke-width="2" stroke-miterlimit="10"/>
<path d="M278.611 187.573H439.121" stroke="black" stroke-width="2" stroke-miterlimit="10"/>
<path d="M278.611 197.652H372.398" stroke="black" stroke-width="2" stroke-miterlimit="10"/>
<path d="M278.611 206.022H386.165" stroke="black" stroke-width="2" stroke-miterlimit="10"/>
<path d="M278.611 215.31H473" stroke="black" stroke-width="2" stroke-miterlimit="10"/>
</g>
<defs>
<clipPath id="clip0_268_41">
<rect width="426" height="237" fill="white" transform="translate(47 123)"/>
</clipPath>
</defs>
</svg>
