<svg width="473" height="309" viewBox="0 0 473 309" fill="none" xmlns="http://www.w3.org/2000/svg">
<g clip-path="url(#clip0_266_40)">
<path d="M74 255.33C74 255.643 74.2512 255.894 74.5641 255.894H398.436C398.749 255.894 399 255.643 399 255.33C399 255.018 398.749 254.767 398.436 254.767H74.5641C74.2512 254.767 74 255.018 74 255.33Z" fill="#3F3D56"/>
<path d="M208.375 255.752H107.14C103.098 255.752 99.8086 252.464 99.8086 248.424V60.3276C99.8086 56.2871 103.098 53 107.14 53H208.375C212.418 53 215.707 56.2871 215.707 60.3276V248.424C215.707 252.464 212.418 255.752 208.375 255.752ZM107.14 53.9474C103.62 53.9474 100.757 56.8096 100.757 60.3276V248.424C100.757 251.942 103.62 254.804 107.14 254.804H208.375C211.895 254.804 214.759 251.942 214.759 248.424V60.3276C214.759 56.8096 211.895 53.9474 208.375 53.9474H107.14Z" fill="#3F3D56"/>
<path d="M389.929 148.647C389.529 147.972 387.798 148.694 387.48 148.082C387.163 147.472 388.771 146.543 389.69 144.42C389.856 144.038 390.9 141.625 390.127 140.881C388.662 139.47 381.956 145.293 379.609 143.387C379.094 142.969 378.734 142.134 377.175 140.779C376.555 140.24 376.18 139.996 375.817 140.087C375.302 140.215 375.262 140.904 374.709 142.258C373.881 144.289 373.392 144.167 372.909 145.787C372.551 146.99 372.633 147.689 372.211 147.826C371.615 148.018 371.066 146.743 370.31 146.857C369.539 146.973 369.073 148.459 368.925 149.571C368.649 151.658 369.416 153.036 369.841 154.484C370.303 156.058 370.577 158.451 369.51 161.84L358.951 191.573C361.282 185.472 368.032 168.747 370.868 162.532C371.687 160.737 372.591 158.918 374.447 158.199C376.234 157.508 378.689 157.921 381.818 157.167C382.183 157.079 383.198 156.821 383.325 156.225C383.431 155.732 382.834 155.457 382.926 154.996C383.049 154.377 384.222 154.369 385.663 153.655C386.68 153.151 387.313 152.552 387.858 152.037C388.022 151.882 390.462 149.544 389.929 148.647Z" fill="#F2F2F2"/>
<path d="M348.387 164.3C347.94 164.302 347.795 165.359 347.403 165.339C347.012 165.319 347.019 164.261 346.242 163.198C346.102 163.006 345.219 161.798 344.63 161.963C343.514 162.274 344.439 167.244 342.826 167.845C342.472 167.977 341.958 167.913 340.843 168.286C340.399 168.435 340.171 168.549 340.111 168.753C340.026 169.042 340.352 169.261 340.858 169.923C341.616 170.915 341.415 171.12 342.071 171.824C342.559 172.347 342.926 172.508 342.871 172.754C342.794 173.103 342.009 173.004 341.847 173.407C341.682 173.819 342.277 174.477 342.78 174.87C343.726 175.608 344.623 175.629 345.457 175.838C346.363 176.066 347.618 176.622 348.974 178.123L360.529 191.881C358.205 188.978 351.939 180.841 349.706 177.656C349.061 176.737 348.428 175.769 348.611 174.651C348.787 173.575 349.698 172.49 350.231 170.738C350.293 170.533 350.459 169.961 350.203 169.726C349.991 169.532 349.684 169.746 349.484 169.568C349.215 169.329 349.55 168.751 349.615 167.838C349.661 167.194 349.55 166.71 349.454 166.295C349.425 166.169 348.981 164.298 348.387 164.3Z" fill="#F2F2F2"/>
<path d="M357.296 166.299L357.027 163.898L357.15 163.716C357.719 162.875 358.009 162.053 358.013 161.273C358.013 161.149 358.007 161.025 358.002 160.898C357.979 160.397 357.95 159.775 358.274 159.049C358.456 158.645 358.968 157.708 359.737 157.824C359.944 157.853 360.101 157.948 360.22 158.059C360.237 158.031 360.255 158.004 360.274 157.973C360.514 157.608 360.703 157.452 360.886 157.301C361.026 157.185 361.171 157.066 361.399 156.783C361.498 156.659 361.576 156.55 361.642 156.458C361.841 156.181 362.1 155.851 362.559 155.857C363.048 155.88 363.304 156.284 363.474 156.552C363.778 157.03 363.915 157.374 364.006 157.602C364.039 157.686 364.077 157.78 364.096 157.809C364.254 158.041 365.536 157.824 366.019 157.745C367.104 157.564 368.043 157.408 368.43 158.092C368.707 158.581 368.502 159.228 367.8 160.066C367.581 160.327 367.349 160.525 367.142 160.68C367.313 160.782 367.466 160.939 367.528 161.185C367.675 161.767 367.174 162.35 366.041 162.92C365.76 163.063 365.381 163.253 364.851 163.344C364.601 163.387 364.376 163.398 364.183 163.403C364.179 163.515 364.153 163.635 364.085 163.759C363.886 164.125 363.472 164.298 362.848 164.257C362.161 164.221 361.596 164.09 361.097 163.975C360.662 163.875 360.286 163.791 359.992 163.81C359.445 163.854 359.024 164.292 358.53 164.858L357.296 166.299Z" fill="#F2F2F2"/>
<path d="M358.545 152.004L356.29 152.873L356.082 152.8C355.123 152.464 354.254 152.392 353.498 152.587C353.378 152.617 353.259 152.655 353.139 152.692C352.66 152.842 352.065 153.028 351.28 152.898C350.842 152.824 349.806 152.567 349.723 151.794C349.698 151.587 349.751 151.411 349.828 151.268C349.797 151.258 349.765 151.248 349.731 151.237C349.317 151.098 349.118 150.955 348.925 150.816C348.778 150.71 348.625 150.6 348.294 150.452C348.148 150.387 348.023 150.34 347.918 150.3C347.599 150.178 347.214 150.01 347.103 149.566C347.001 149.087 347.328 148.736 347.544 148.504C347.929 148.09 348.228 147.869 348.426 147.723C348.498 147.67 348.579 147.61 348.603 147.584C348.787 147.373 348.252 146.188 348.053 145.741C347.603 144.738 347.213 143.87 347.777 143.322C348.18 142.93 348.859 142.965 349.848 143.431C350.156 143.576 350.406 143.751 350.609 143.911C350.665 143.72 350.777 143.532 350.999 143.41C351.526 143.121 352.217 143.457 353.056 144.407C353.266 144.643 353.546 144.961 353.769 145.451C353.874 145.681 353.941 145.896 353.995 146.081C354.104 146.057 354.227 146.051 354.365 146.085C354.769 146.185 355.042 146.541 355.16 147.155C355.299 147.828 355.316 148.408 355.331 148.919C355.345 149.366 355.359 149.75 355.452 150.03C355.634 150.547 356.163 150.843 356.837 151.177L358.545 152.004Z" fill="#F2F2F2"/>
<path d="M357.296 144.931L357.027 142.53L357.15 142.348C357.719 141.507 358.009 140.685 358.013 139.905C358.013 139.781 358.007 139.656 358.002 139.53C357.979 139.029 357.95 138.407 358.274 137.681C358.456 137.276 358.968 136.34 359.737 136.456C359.944 136.485 360.101 136.58 360.22 136.691C360.237 136.663 360.255 136.635 360.274 136.605C360.514 136.24 360.703 136.084 360.886 135.933C361.026 135.817 361.171 135.698 361.399 135.415C361.498 135.291 361.576 135.182 361.642 135.09C361.841 134.813 362.1 134.483 362.559 134.488C363.048 134.512 363.304 134.916 363.474 135.184C363.778 135.662 363.915 136.006 364.006 136.234C364.039 136.318 364.077 136.412 364.096 136.441C364.254 136.672 365.536 136.456 366.019 136.377C367.104 136.196 368.043 136.039 368.43 136.723C368.707 137.213 368.502 137.86 367.8 138.698C367.581 138.959 367.349 139.157 367.142 139.312C367.313 139.414 367.466 139.571 367.528 139.816C367.675 140.398 367.174 140.982 366.041 141.552C365.76 141.694 365.381 141.885 364.851 141.976C364.601 142.019 364.376 142.03 364.183 142.035C364.179 142.147 364.153 142.267 364.085 142.391C363.886 142.756 363.472 142.93 362.848 142.889C362.161 142.853 361.596 142.722 361.097 142.607C360.662 142.507 360.286 142.423 359.992 142.442C359.445 142.486 359.024 142.923 358.53 143.49L357.296 144.931Z" fill="#F2F2F2"/>
<path d="M359.755 191.535L359.252 191.219L358.665 191.286C358.655 191.232 358.623 191.107 358.575 190.911C358.313 189.837 357.512 186.57 356.843 181.426C356.377 177.834 356.113 174.142 356.059 170.449C356.004 166.751 356.179 163.952 356.32 161.701C356.426 160.004 356.555 158.388 356.681 156.814C357.017 152.608 357.335 148.635 357.099 144.237C357.046 143.255 356.937 141.211 355.742 139.036C355.049 137.775 354.094 136.655 352.904 135.709L353.644 134.779C354.958 135.825 356.014 137.065 356.784 138.466C358.108 140.877 358.228 143.104 358.285 144.174C358.525 148.65 358.205 152.661 357.865 156.908C357.74 158.476 357.611 160.085 357.505 161.776C357.366 164.005 357.193 166.78 357.247 170.431C357.3 174.079 357.561 177.726 358.021 181.273C358.681 186.353 359.47 189.571 359.729 190.628C359.867 191.193 359.896 191.311 359.755 191.535Z" fill="#F2F2F2"/>
<path d="M350.726 137.595C350.678 137.595 350.628 137.594 350.578 137.59C349.567 137.536 348.63 136.931 347.794 135.792C347.402 135.257 347.201 134.646 346.801 133.427C346.739 133.24 346.437 132.287 346.254 130.975C346.134 130.119 346.149 129.76 346.319 129.444C346.508 129.092 346.813 128.846 347.156 128.68C347.141 128.566 347.153 128.449 347.202 128.33C347.405 127.835 347.943 127.9 348.234 127.931C348.381 127.95 348.565 127.974 348.764 127.964C349.076 127.949 349.243 127.856 349.497 127.717C349.74 127.583 350.043 127.418 350.491 127.326C351.375 127.142 352.115 127.392 352.36 127.474C353.644 127.902 354.278 128.9 355.011 130.056C355.157 130.288 355.658 131.132 355.99 132.289C356.229 133.124 356.195 133.495 356.123 133.77C355.977 134.337 355.632 134.662 354.755 135.378C353.84 136.128 353.381 136.504 352.987 136.732C352.068 137.262 351.492 137.595 350.726 137.595Z" fill="#F2F2F2"/>
<path d="M215.988 136.614H99.5254V166.847H215.988V136.614Z" fill="#6C63FF"/>
<path d="M173.639 53.4736H143.389V255.278H173.639V53.4736Z" fill="#6C63FF"/>
<path opacity="0.2" d="M174.756 164.571C174.97 163.738 175.098 162.872 175.129 161.98L212.963 127.544L180.444 111.672L166.112 149.869C165.133 149.613 164.11 149.463 163.051 149.463C162.488 149.463 161.939 149.515 161.396 149.589L147.169 111.672L114.65 127.544L150.997 160.627C150.974 160.935 150.95 161.242 150.95 161.556C150.95 162.599 151.097 163.605 151.345 164.571C129.065 171.53 119.944 192.545 119.944 192.545L147.925 215.219C146.257 198.54 156.448 181.465 161.958 173.594C162.318 173.626 162.682 173.649 163.051 173.649C163.419 173.649 163.783 173.626 164.143 173.594C169.653 181.465 179.844 198.54 178.176 215.219L206.157 192.545C206.157 192.545 197.036 171.53 174.756 164.571Z" fill="black"/>
<path d="M178.864 207.049C178.538 207.049 178.209 206.978 177.899 206.833C177.113 206.467 176.617 205.703 176.603 204.84C176.374 190.217 168.031 175.866 163.079 168.613C162.748 168.129 162.177 167.84 161.551 167.84H161.548C160.899 167.84 160.327 168.129 159.997 168.613C155.044 175.866 146.702 190.217 146.472 204.84C146.459 205.702 145.962 206.467 145.177 206.833C144.383 207.204 143.468 207.092 142.789 206.542L119.532 187.695C118.702 187.022 118.458 185.843 118.952 184.892C121.303 180.367 130.354 165.116 148.117 158.845C148.91 158.565 149.391 157.776 149.287 156.926C149.23 156.452 149.201 155.975 149.201 155.51C149.202 154.955 148.99 154.451 148.618 154.113L115.182 123.679C114.628 123.175 114.36 122.43 114.466 121.688C114.572 120.946 115.038 120.306 115.712 119.977L143.551 106.39C144.122 106.111 144.788 106.086 145.38 106.321C145.97 106.556 146.437 107.032 146.661 107.627L159.568 142.028C159.835 142.739 160.518 143.202 161.294 143.183C161.878 143.169 162.472 143.203 163.063 143.28C163.898 143.391 164.685 142.921 164.977 142.141L177.927 107.627C178.151 107.032 178.618 106.556 179.208 106.321C179.799 106.086 180.466 106.111 181.037 106.39L208.875 119.977C209.55 120.306 210.016 120.946 210.122 121.689C210.228 122.43 209.96 123.175 209.406 123.679L174.375 155.564C174.049 155.861 173.846 156.267 173.803 156.706C173.794 156.801 173.784 156.896 173.772 156.99C173.676 157.788 174.173 158.568 174.953 158.843C192.719 165.113 201.772 180.366 204.123 184.892C204.618 185.843 204.374 187.022 203.544 187.695L180.286 206.542C179.873 206.877 179.372 207.049 178.864 207.049Z" fill="#6C63FF"/>
<path d="M375.295 255.937H277.623C273.58 255.937 270.291 252.65 270.291 248.609V198.942C270.291 194.902 273.58 191.614 277.623 191.614H375.295C379.337 191.614 382.626 194.902 382.626 198.942V248.609C382.626 252.65 379.337 255.937 375.295 255.937ZM277.623 192.562C274.103 192.562 271.239 195.424 271.239 198.942V248.609C271.239 252.128 274.103 254.99 277.623 254.99H375.295C378.815 254.99 381.678 252.128 381.678 248.609V198.942C381.678 195.424 378.815 192.562 375.295 192.562H277.623Z" fill="#3F3D56"/>
<path d="M336.261 191.671H319.574V255.88H336.261V191.671Z" fill="#6C63FF"/>
<path d="M382.151 215.854H270.764V232.531H382.151V215.854Z" fill="#6C63FF"/>
<path opacity="0.2" d="M323.2 234.569C323.66 234.687 324.137 234.757 324.63 234.774L343.637 255.633L352.398 237.705L331.315 229.803C331.456 229.263 331.539 228.699 331.539 228.115C331.539 227.805 331.51 227.502 331.469 227.203L352.398 219.359L343.637 201.431L325.377 221.47C325.207 221.457 325.037 221.444 324.864 221.444C324.288 221.444 323.733 221.524 323.2 221.661C319.359 209.378 307.76 204.349 307.76 204.349L295.244 219.776C304.45 218.856 313.875 224.475 318.22 227.513C318.202 227.711 318.189 227.912 318.189 228.115C318.189 228.318 318.202 228.519 318.22 228.718C313.875 231.755 304.45 237.374 295.244 236.454L307.76 251.881C307.76 251.881 319.359 246.852 323.2 234.569Z" fill="black"/>
<path d="M344.323 252.766C343.945 252.766 343.582 252.607 343.324 252.324L325.723 233.009C325.578 232.85 325.367 232.749 325.128 232.725L325.053 232.717C324.623 232.67 324.23 232.902 324.096 233.283C320.622 243.127 312.164 248.137 309.655 249.438C309.09 249.732 308.387 249.584 307.985 249.086L297.581 236.262C297.252 235.856 297.185 235.308 297.407 234.833C297.626 234.364 298.082 234.069 298.597 234.061C306.64 233.937 314.542 229.348 318.537 226.625C318.778 226.46 318.921 226.177 318.921 225.867C318.921 225.543 318.778 225.26 318.537 225.097C314.543 222.373 306.641 217.784 298.596 217.66C298.082 217.653 297.626 217.357 297.407 216.888C297.185 216.412 297.252 215.865 297.581 215.458L307.985 202.634C308.388 202.138 309.09 201.99 309.655 202.283C312.164 203.584 320.62 208.593 324.094 218.433C324.229 218.815 324.613 219.052 325.001 219.006C325.422 218.953 325.842 218.941 326.248 218.971L343.324 200.231C343.626 199.899 344.072 199.739 344.516 199.803C344.96 199.867 345.343 200.145 345.54 200.548L353.04 215.898C353.207 216.24 353.222 216.639 353.082 216.992C352.941 217.345 352.656 217.624 352.299 217.757L333.311 224.874C332.961 225.005 332.733 225.346 332.743 225.723L332.744 225.86C332.744 226.155 332.724 226.456 332.683 226.753C332.631 227.135 332.869 227.515 333.25 227.658L352.3 234.798C352.656 234.931 352.941 235.21 353.082 235.564C353.222 235.917 353.207 236.315 353.04 236.657L345.54 252.007C345.343 252.41 344.96 252.688 344.516 252.752C344.452 252.761 344.387 252.766 344.323 252.766Z" fill="#6C63FF"/>
<path d="M255.865 134.332H240.59V129.305C240.59 120.88 247.434 114.039 255.865 114.039L255.865 134.332Z" fill="#2F2E41"/>
<path d="M252.479 124.948L255.105 136.754L239.715 134.2L245.986 123.034L252.479 124.948Z" fill="#FFB6B6"/>
<path opacity="0.1" d="M252.479 124.948L255.105 136.754L239.715 134.2L245.986 123.034L252.479 124.948Z" fill="black"/>
<path d="M252.478 150.168H237.723V171.993H252.478V150.168Z" fill="#FFB6B6"/>
<path d="M262.069 189.837L258.823 207.238C258.823 207.238 260.889 219.33 254.692 231.717L250.56 244.399L244.363 243.515C244.363 243.515 248.2 234.077 248.2 229.948C248.2 225.819 249.085 209.892 249.085 209.892L248.642 191.719L262.069 189.837Z" fill="#FFB6B6"/>
<path d="M243.477 243.219C243.477 243.219 250.559 240.565 251.149 244.399L250.854 246.168C250.854 246.168 253.51 254.132 249.674 254.722C245.838 255.311 242.296 256.196 242.001 254.427C241.706 252.657 241.711 250.448 242.446 248.898C243.182 247.348 243.477 243.219 243.477 243.219Z" fill="#2F2E41"/>
<path d="M239.73 187.137L238.006 204.754C238.006 204.754 232.657 215.795 235.162 229.416L235.602 242.746L241.801 243.618C241.801 243.618 240.742 233.486 241.891 229.52C243.04 225.554 246.621 210.01 246.621 210.01L252.103 192.677L239.73 187.137Z" fill="#FFB6B6"/>
<path d="M242.732 243.582C242.732 243.582 236.668 239.064 235.034 242.582L234.825 244.364C234.825 244.364 230.142 253.171 233.663 254.804C237.184 256.437 240.255 256.375 241.031 254.757C241.807 253.139 242.417 251.016 242.142 249.323C241.867 247.63 242.732 243.582 242.732 243.582Z" fill="#2F2E41"/>
<path d="M258.233 161.817L270.922 188.656C270.922 188.656 245.396 201.486 230.346 201.486L237.818 161.817L258.233 161.817Z" fill="#2F2E41"/>
<path d="M246.87 130.407L254.248 131.587L253.658 150.168L261.921 166.684L251.297 171.993C251.297 171.993 243.034 156.361 241.559 146.629C240.083 136.896 240.968 129.817 240.968 129.817L246.87 130.407Z" fill="#E6E6E6"/>
<path d="M241.265 130.997L233.887 132.177L234.478 150.758L232.707 167.864L236.838 172.583C236.838 172.583 245.101 156.951 246.577 147.218C248.052 137.486 247.167 130.407 247.167 130.407L241.265 130.997Z" fill="#E6E6E6"/>
<path d="M252.625 132.03L254.248 131.588C254.248 131.588 260.003 130.85 260.888 133.21C261.773 135.569 261.478 149.431 261.478 149.431C261.478 149.431 263.001 166.444 257.075 166.638C251.15 166.832 252.33 152.675 252.33 152.675L252.625 132.03Z" fill="#E6E6E6"/>
<path d="M249.903 128.188C254.121 128.188 257.541 124.771 257.541 120.555C257.541 116.339 254.121 112.922 249.903 112.922C245.685 112.922 242.266 116.339 242.266 120.555C242.266 124.771 245.685 128.188 249.903 128.188Z" fill="#FFB6B6"/>
<path d="M247.513 131.06C249.152 130.645 251.009 132.394 251.663 134.967C251.938 135.992 251.964 137.068 251.738 138.104L252.442 141.03L252.494 141.027L258.047 154.107C259.338 157.149 259.202 160.64 257.555 163.504C256.575 165.208 255.289 166.354 253.779 165.185C251.273 163.244 249.637 152.134 248.889 145.752L247.162 139.265C246.468 138.461 245.977 137.503 245.73 136.471C245.077 133.898 245.875 131.476 247.513 131.06Z" fill="#FFB6B6"/>
<path d="M240.38 132.03L238.757 131.588C238.757 131.588 233.003 130.85 232.117 133.21C231.232 135.569 231.527 149.431 231.527 149.431C231.527 149.431 230.004 166.444 235.93 166.638C241.856 166.832 240.675 152.675 240.675 152.675L240.38 132.03Z" fill="#E6E6E6"/>
<path d="M245.492 131.06C243.853 130.645 241.996 132.394 241.342 134.967C241.067 135.992 241.041 137.068 241.267 138.104L240.563 141.03L240.511 141.027L234.958 154.107C233.667 157.149 233.803 160.64 235.45 163.504C236.43 165.208 237.716 166.354 239.226 165.185C241.732 163.244 243.368 152.134 244.116 145.752L245.843 139.265C246.537 138.461 247.028 137.503 247.275 136.471C247.929 133.898 247.13 131.476 245.492 131.06Z" fill="#FFB6B6"/>
<path d="M235.281 126.73C235.669 125.549 236.436 124.516 236.779 123.321C237.235 121.735 238.205 125.254 238.299 123.606C238.479 120.475 243.261 112.421 245.991 110.874C248.72 109.326 250.288 109.793 253.069 111.246C253.069 111.246 254.419 111.332 256.1 112.161C257.781 112.99 259.293 114.318 259.947 116.074C260.465 117.466 260.408 118.994 260.581 120.469C261.063 124.577 263.368 128.484 262.873 132.591C262.719 133.872 262.231 135.197 261.183 135.951C260.135 136.705 258.441 136.623 257.751 135.532C257.516 135.16 257.416 134.718 257.214 134.326C257.013 133.935 256.648 133.57 256.208 133.582C255.545 133.6 255.208 134.488 255.47 135.097C255.731 135.705 256.344 136.072 256.92 136.399C255.548 137.016 253.846 136.824 252.647 135.917C251.447 135.01 250.799 133.425 251.02 131.938C251.331 129.842 254.386 130.276 254.746 128.188C255.008 126.668 255.928 124.125 255.677 122.603C255.427 121.081 254.223 122.923 255.491 122.044C254.096 122.716 251.112 118.119 249.652 117.604C248.192 117.089 246.954 115.974 246.29 114.576C244.741 116.819 243.378 116.21 242.824 118.879C242.269 121.548 242.782 127.612 245.066 129.102C244.152 129.725 243.423 130.617 242.994 131.636C242.751 132.214 242.594 132.846 242.191 133.325C241.42 134.241 239.998 134.297 238.865 133.912C237.459 133.434 236.258 132.385 235.595 131.058C234.932 129.73 234.817 128.139 235.281 126.73Z" fill="#2F2E41"/>
</g>
<defs>
<clipPath id="clip0_266_40">
<rect width="325" height="203" fill="white" transform="translate(74 53)"/>
</clipPath>
</defs>
</svg>
